<svg
	width="16"
	height="16"
	viewBox="0 0 24 24"
	fill="none"
	xmlns="http://www.w3.org/2000/svg"
>
	<g>
		<path
			d="M20 5.64706C20 7.10899 16.4183 8.29412 12 8.29412C7.58172 8.29412 4 7.10899 4 5.64706M20 5.64706C20 4.18513 16.4183 3 12 3C7.58172 3 4 4.18513 4 5.64706M20 5.64706V9.88235M20 5.64706V14.1176M20 5.64706V18.3529M4 5.64706V9.88235M4 5.64706V14.1176M4 5.64706V18.3529M20 9.88235C20 11.3443 16.4183 12.5294 12 12.5294C7.58172 12.5294 4 11.3443 4 9.88235M20 9.88235V14.1176M20 9.88235V18.3529M4 9.88235V14.1176M4 9.88235V18.3529M20 14.1176C20 15.5796 16.4183 16.7647 12 16.7647C7.58172 16.7647 4 15.5796 4 14.1176M20 14.1176V18.3529M4 14.1176V18.3529M20 18.3529C20 19.8149 16.4183 21 12 21C7.58172 21 4 19.8149 4 18.3529"
			stroke="currentColor"
			strokeWidth="1.5"
			strokeLinecap="round"
			strokeLinejoin="round"
		/>
	</g>
</svg>