<svg width="13" height="13" viewBox="0 0 13 13" fill="none" xmlns="http://www.w3.org/2000/svg">
<path fill-rule="evenodd" clip-rule="evenodd" d="M8 1.33333C7.6318 1.33333 7.33333 1.03485 7.33333 0.666667C7.33333 0.29848 7.6318 0 8 0H12C12.3682 0 12.6667 0.29848 12.6667 0.666667V4.66667C12.6667 5.03487 12.3682 5.33333 12 5.33333C11.6318 5.33333 11.3333 5.03487 11.3333 4.66667V2.27614L6.4714 7.13807C6.21107 7.3984 5.78893 7.3984 5.5286 7.13807C5.26825 6.87773 5.26825 6.4556 5.5286 6.19527L10.3905 1.33333H8ZM2 2.66667C1.63181 2.66667 1.33333 2.96515 1.33333 3.33333V10.6667C1.33333 11.0349 1.63181 11.3333 2 11.3333H9.33333C9.70153 11.3333 10 11.0349 10 10.6667V7.625C10 7.2568 10.2985 6.95833 10.6667 6.95833C11.0349 6.95833 11.3333 7.2568 11.3333 7.625V10.6667C11.3333 11.7713 10.4379 12.6667 9.33333 12.6667H2C0.895433 12.6667 0 11.7713 0 10.6667V3.33333C0 2.22877 0.895433 1.33333 2 1.33333H5.04167C5.40987 1.33333 5.70833 1.63181 5.70833 2C5.70833 2.36819 5.40987 2.66667 5.04167 2.66667H2Z" fill="#1E90FF"/>
</svg>
