<svg width="16" height="16" fill="none" xmlns="http://www.w3.org/2000/svg"><g clip-path="url(#a)" fill="#00AB55"><path fill-rule="evenodd" clip-rule="evenodd" d="M7.107 5.241c-.164.123-.274.3-.274.592a.667.667 0 1 1-1.333 0c0-.708.305-1.281.807-1.658.479-.36 1.091-.508 1.693-.508.719 0 1.325.216 1.763.63.434.41.64.957.673 1.503.063 1.07-.527 2.246-1.605 2.862-.07.038-.135.083-.196.135a.667.667 0 0 1-1.166.605h-.001L7.467 9.4a1.072 1.072 0 0 1-.191-.762c.055-.454.373-.837.893-1.134.642-.367.969-1.065.936-1.625-.016-.27-.112-.475-.258-.614C8.703 5.13 8.448 5 8 5c-.401 0-.706.102-.893.242Z"/><path d="M8 12.334a1 1 0 1 0 0-2 1 1 0 0 0 0 2Z"/><path fill-rule="evenodd" clip-rule="evenodd" d="M.667 8a7.333 7.333 0 1 1 14.667 0A7.333 7.333 0 0 1 .667 8ZM8 2a6 6 0 1 0 0 12A6 6 0 0 0 8 2Z"/></g><defs><clipPath id="a"><path fill="#fff" d="M0 0h16v16H0z"/></clipPath></defs></svg>